<svg width="24" height="24" viewBox="0 0 24 24" fill="none" xmlns="http://www.w3.org/2000/svg">
<path d="M4 6.59998H5.77778H20" stroke="white" stroke-width="1.5" stroke-linecap="round" stroke-linejoin="round"/>
<path d="M18.2222 6.6V19.2C18.2222 19.6774 18.0349 20.1352 17.7015 20.4728C17.3681 20.8104 16.9159 21 16.4444 21H7.55556C7.08406 21 6.63188 20.8104 6.29848 20.4728C5.96508 20.1352 5.77778 19.6774 5.77778 19.2V6.6M8.44445 6.6V4.8C8.44445 4.32261 8.63175 3.86477 8.96514 3.52721C9.29854 3.18964 9.75073 3 10.2222 3H13.7778C14.2493 3 14.7015 3.18964 15.0349 3.52721C15.3683 3.86477 15.5556 4.32261 15.5556 4.8V6.6" stroke="white" stroke-width="1.5" stroke-linecap="round" stroke-linejoin="round"/>
<path d="M10.2222 11.1V16.5" stroke="white" stroke-width="1.5" stroke-linecap="round" stroke-linejoin="round"/>
<path d="M13.7778 11.1V16.5" stroke="white" stroke-width="1.5" stroke-linecap="round" stroke-linejoin="round"/>
</svg>
